<svg xmlns="http://www.w3.org/2000/svg" viewBox="0 0 60.73 60.73"><defs><style>.cls-1{fill:#18eebe;}</style></defs><title>Facebook</title><g id="Layer_2" data-name="Layer 2"><g id="Layer_1-2" data-name="Layer 1"><g id="Capa_1" data-name="Capa 1"><path class="cls-1" d="M57.38,0h-54A3.35,3.35,0,0,0,0,3.32v54A3.35,3.35,0,0,0,3.35,60.7H32.44V37.21H24.52V28.05h7.92V21.29c0-7.85,4.79-12.12,11.78-12.12a64.44,64.44,0,0,1,7.08.36v8.2H46.44c-3.8,0-4.54,1.81-4.54,4.46V28H51l-1.19,9.17H41.9V60.73H57.38a3.35,3.35,0,0,0,3.35-3.35v-54A3.35,3.35,0,0,0,57.41,0Z"/></g></g></g></svg>