<svg xmlns="http://www.w3.org/2000/svg" viewBox="0 0 510 510"><defs><style>.cls-1{fill:#18eebe;}</style></defs><title>Linked-In</title><g id="Layer_2" data-name="Layer 2"><g id="Layer_1-2" data-name="Layer 1"><g id="Capa_1" data-name="Capa 1"><g id="post-linkedin"><path class="cls-1" d="M459,0H51A51.15,51.15,0,0,0,0,51V459a51.15,51.15,0,0,0,51,51H459a51.15,51.15,0,0,0,51-51V51A51.15,51.15,0,0,0,459,0ZM153,433.5H76.5V204H153ZM114.75,160.65a45.9,45.9,0,1,1,45.9-45.9h0a45.71,45.71,0,0,1-45.52,45.9ZM433.5,433.5H357V298.35c0-20.4-17.85-38.25-38.25-38.25S280.5,278,280.5,298.35V433.5H204V204h76.5v30.6c12.75-20.4,40.8-35.7,63.75-35.7,48.45,0,89.25,40.8,89.25,89.25Z"/></g></g></g></g></svg>